<svg width="396" height="396 " viewBox="0 0 396 396 " fill="none" xmlns="http://www.w3.org/2000/svg">
<mask id="path-1-inside-1_3154_6681" fill="white">
<path d="M183.46 234.528C182.246 234.325 180.931 234.083 179.657 233.739C180.689 233.779 181.761 233.84 182.772 233.88C183.015 234.083 183.218 234.325 183.46 234.507V234.528Z"></path>
</mask>
<path d="M183.46 234.528L183.132 236.5L185.46 236.889V234.528H183.46ZM179.657 233.739L179.735 231.74L179.136 235.67L179.657 233.739ZM182.772 233.88L184.053 232.344L183.531 231.909L182.852 231.882L182.772 233.88ZM183.46 234.507H185.46V233.507L184.66 232.907L183.46 234.507ZM183.46 234.528L183.789 232.555C182.593 232.355 181.355 232.125 180.178 231.808L179.657 233.739L179.136 235.67C180.507 236.04 181.9 236.295 183.132 236.5L183.46 234.528ZM179.657 233.739L179.578 235.737C180.084 235.757 180.601 235.782 181.126 235.807C181.647 235.832 182.177 235.858 182.693 235.879L182.772 233.88L182.852 231.882C182.356 231.862 181.844 231.837 181.319 231.812C180.796 231.787 180.261 231.761 179.735 231.74L179.657 233.739ZM182.772 233.88L181.492 235.417C181.538 235.455 181.581 235.497 181.719 235.632C181.829 235.74 182.023 235.93 182.26 236.107L183.46 234.507L184.66 232.907C184.663 232.909 184.653 232.902 184.627 232.879C184.6 232.854 184.567 232.822 184.514 232.771C184.429 232.688 184.25 232.508 184.053 232.344L182.772 233.88ZM183.46 234.507H181.46V234.528H183.46H185.46V234.507H183.46Z" fill="#D8859C" mask="url(#path-1-inside-1_3154_6681)"></path>
<path d="M212.298 147.736L212.98 148.407L213.681 147.756C215.34 146.212 216.759 145.77 218.058 145.826C219.421 145.885 220.804 146.494 222.381 147.38C223.888 148.226 225.633 149.366 227.438 150.177C228.637 150.716 229.925 151.14 231.317 151.299C231.303 151.31 231.288 151.322 231.273 151.334C230.546 151.886 229.641 152.43 228.676 152.931C226.981 153.812 225.184 154.519 223.997 154.885L223.527 155.019L223.524 155.02C217.596 156.606 213.512 157.155 210.51 155.967C207.722 154.863 205.596 152.128 203.937 146.329L208.011 143.52L212.298 147.736Z" stroke="#D8859C" stroke-width="2"></path>
<mask id="path-4-inside-2_3154_6681" fill="white">
<path d="M183.46 234.528C182.246 234.325 180.931 234.083 179.657 233.739C180.689 233.779 181.761 233.84 182.772 233.88C183.015 234.083 183.218 234.325 183.46 234.507V234.528Z"></path>
</mask>
<path d="M183.46 234.528L183.132 236.5L185.46 236.889V234.528H183.46ZM179.657 233.739L179.735 231.74L179.136 235.67L179.657 233.739ZM182.772 233.88L184.053 232.344L183.531 231.909L182.852 231.882L182.772 233.88ZM183.46 234.507H185.46V233.507L184.66 232.907L183.46 234.507ZM183.46 234.528L183.789 232.555C182.593 232.356 181.355 232.126 180.178 231.808L179.657 233.739L179.136 235.67C180.507 236.04 181.9 236.295 183.132 236.5L183.46 234.528ZM179.657 233.739L179.578 235.737C180.084 235.757 180.601 235.782 181.126 235.807C181.647 235.832 182.177 235.858 182.693 235.879L182.772 233.88L182.852 231.882C182.356 231.862 181.844 231.837 181.319 231.812C180.796 231.787 180.261 231.761 179.735 231.74L179.657 233.739ZM182.772 233.88L181.492 235.417C181.538 235.455 181.581 235.497 181.719 235.632C181.829 235.74 182.023 235.93 182.26 236.107L183.46 234.507L184.66 232.907C184.663 232.909 184.653 232.902 184.627 232.879C184.6 232.854 184.567 232.822 184.514 232.771C184.429 232.688 184.25 232.508 184.053 232.344L182.772 233.88ZM183.46 234.507H181.46V234.528H183.46H185.46V234.507H183.46Z" fill="#D8859C" mask="url(#path-4-inside-2_3154_6681)"></path>
<path d="M95.0566 97.9606C99.0777 100.671 102.722 105.201 105.431 110.327C108.129 115.432 109.845 121.026 110.109 125.819L110.131 126.281C110.421 134.469 105.682 143.08 99.5557 151.493C96.508 155.678 93.1621 159.756 89.9961 163.667C86.9993 167.368 84.1566 170.927 81.9316 174.238C81.2297 174.134 81.0119 173.902 80.9238 173.755C80.761 173.482 80.6983 172.976 80.835 172.041C80.8993 171.6 80.9985 171.121 81.1113 170.591C81.2221 170.072 81.3467 169.503 81.4521 168.927C81.6491 167.852 81.7962 166.659 81.6602 165.482L81.6289 165.247C79.8033 152.921 73.1485 145.642 66.4229 136.427C66.4548 136.286 66.5102 136.091 66.6035 135.835C66.7721 135.372 67.0309 134.794 67.377 134.108C68.0683 132.738 69.0746 131.007 70.3115 129.038C72.7829 125.103 76.1344 120.279 79.6162 115.595C83.0988 110.911 86.6984 106.388 89.6621 103.054C91.1465 101.385 92.4533 100.033 93.4961 99.112C94.0193 98.6498 94.453 98.3171 94.791 98.1081C94.9017 98.0397 94.9896 97.993 95.0566 97.9606Z" stroke="#D8859C" stroke-width="2"></path>
<path d="M223.28 25.7246C243.747 3.77307 267.474 -3.91278 288.33 4.08594V4.08496C310.154 12.4666 324.271 37.0187 324.854 68.5146V68.5156C324.977 77.7869 323.37 86.9054 321.528 95.8379L320.729 99.6553C317.422 115.299 314.255 130.538 320.152 145.251L320.929 147.188L321.952 145.369C327.929 134.737 335.728 118.23 339.17 99.583C342.613 80.9289 341.705 60.0651 330.173 40.8164H330.172L329.504 39.6572L330.47 38.7549C331.201 38.0952 332.139 37.8198 333.162 38.0088L333.368 38.0527C334.139 38.2403 335.089 38.7973 336.19 39.7549C337.278 40.6998 338.441 41.9709 339.642 43.4766C342.043 46.4872 344.527 50.3484 346.783 54.1885C349.036 58.0229 351.046 61.8109 352.504 64.6621C353.232 66.087 353.822 67.2766 354.233 68.1191C354.439 68.5404 354.6 68.8751 354.712 69.1084C354.768 69.225 354.811 69.316 354.841 69.3799C354.856 69.4131 354.867 69.4358 354.874 69.4502C364.284 94.1371 364.532 124.034 355.477 151.382C353.704 156.718 351.154 161.706 348.658 166.656C346.173 171.485 343.85 176.085 342.264 180.946L342.112 181.411L342.386 181.815C344.243 184.567 346.028 187.539 347.853 190.716L348.637 192.089L348.643 192.099C353.231 199.978 357.813 207.856 363.673 213.016C366.623 215.614 369.926 217.55 373.747 218.456C377.331 219.306 381.313 219.235 385.811 218.021L386.717 217.763L386.718 217.762L392.585 215.999L388.359 220.4L388.355 220.405C378.298 230.992 366.63 236.093 354.704 235.351L354.136 235.312L354.132 235.311L353.557 235.264C341.489 234.186 330.034 227.247 320.962 215.466L320.243 214.532L319.438 215.394C294.629 241.945 258.421 269.621 214.361 271.09L213.319 271.119H213.317C209.448 271.219 205.539 271.12 201.531 270.779L200.599 270.699L200.458 271.625C200.212 273.239 199.923 274.899 199.497 276.667L199.306 277.432L199.303 277.443C198.138 282.167 195.476 288.356 191.898 295.297C188.329 302.223 183.876 309.842 179.169 317.409C170.343 331.598 160.642 345.572 154.23 354.402L152.993 356.099L152.992 356.1C147.362 363.802 141.082 372.555 133.993 378.405C133.556 378.388 132.923 378.05 132.065 376.995C131.126 375.839 130.178 374.137 129.249 372.207C128.325 370.287 127.452 368.217 126.643 366.344C125.947 364.734 125.282 363.231 124.678 362.158L124.423 361.727L124.422 361.726L123.705 360.6C116.189 349.046 105.217 339.927 92.9473 331.835C80.3056 323.498 66.1337 316.159 52.9033 308.415C26.5179 292.97 3.69005 275.807 1.22852 245.081L1.17383 244.353V244.352L1.11328 243.387C-0.0296598 223.135 7.62843 203.314 18.5703 184.624C29.5272 165.909 43.686 148.467 55.4238 132.938L56.4111 133.478C42.1642 151.885 31.8594 172.396 30.0527 192.616C28.2387 212.92 35.0026 232.836 54.708 249.88L55.6562 250.689H55.6572C64.1902 257.871 73.956 263.918 84.0273 269.65C94.1321 275.402 104.48 280.803 114.348 286.769C134.045 298.676 151.424 312.608 159.7 335.084L159.876 335.562L160.366 335.7C161.273 335.957 162.056 335.427 162.555 334.961C163.102 334.449 163.64 333.71 164.155 332.867C165.195 331.168 166.281 328.818 167.277 326.369C169.265 321.486 170.992 315.97 171.335 313.989C174.004 298.614 167.162 287.199 157.557 277.101C152.763 272.061 147.237 267.303 141.822 262.532C136.432 257.783 131.145 253.014 126.679 247.871C124.494 242.665 122.898 237.636 121.793 232.817L121.576 231.848L121.574 231.839L121.363 230.883C120.412 226.439 119.898 222.223 119.728 218.167L119.696 217.3V217.298L119.661 215.795C119.297 189.079 132.772 170.436 137.461 164.762C137.676 168.134 138.004 171.359 138.403 174.392C138.392 174.511 138.398 174.611 138.406 174.679C138.409 174.704 138.415 174.728 138.418 174.748L138.423 174.784C138.816 177.926 139.317 180.91 139.858 183.744L140.093 184.95L140.094 184.956C143.49 201.599 149.382 213.064 156.408 220.862C163.439 228.666 171.558 232.745 179.312 234.688L179.432 234.719H179.532C180.812 235.057 182.115 235.297 183.296 235.494L186.934 236.101L185.588 234.979C189.989 235.095 194.385 235.021 198.74 234.736L198.739 234.735C202.528 234.491 206.259 234.105 209.95 233.555L209.949 233.554C244.875 228.601 276.572 210.949 298.971 181.723L299.33 181.255L299.094 180.715L291.83 164.083L291.078 162.362L290.07 163.947C276.745 184.892 256.002 200.445 234.71 205.227L233.695 205.446C227.089 206.826 219.823 207.815 213.08 206.693C206.382 205.579 200.201 202.384 195.672 195.343H195.671C193.066 191.292 190.873 185.142 189.104 177.842C187.341 170.562 186.021 162.218 185.125 153.837C183.331 137.048 183.255 120.241 184.689 111.622C184.967 109.989 185.374 107.59 186.265 105.666C186.707 104.71 187.235 103.948 187.856 103.457C188.45 102.988 189.162 102.737 190.089 102.839V102.838L191.484 103.011V104.436C191.559 108.007 191.275 111.742 190.923 115.469L190.558 119.187C190.01 124.156 189.451 129.335 189.587 134.056L189.624 134.994C189.63 135.611 189.741 136.252 189.832 136.864V136.865C190.356 141.224 191.918 148.424 193.713 155.171C194.612 158.551 195.574 161.834 196.5 164.608C197.362 167.19 198.212 169.388 198.97 170.812L199.119 171.086C203.147 178.25 209.69 182.021 218.384 182.234V182.235C229.082 182.641 241.491 177.78 252.253 171.207C262.686 164.835 271.758 156.738 276.388 149.939L276.822 149.286L276.824 149.283C288.191 131.576 283.747 108.026 264.469 79.5146H264.47C253.995 64.0128 242.388 55.7781 230.512 56.5566L229.945 56.6006C216.759 57.6828 204.581 69.5815 195.479 89.4717L195.461 89.5117L195.446 89.5547C195.024 90.7491 194.61 91.8875 194.028 92.7822C193.499 93.5962 192.893 94.1125 192.101 94.291L191.939 94.3223L191.932 94.3242C191.447 94.407 190.484 94.4071 189.494 93.2539L189.296 93.0068L188.914 92.502L189.002 91.8154C192.41 69.0386 207.632 49.7371 228.717 41.4326C247.732 34.0611 267.733 37.0689 283.775 49.8291L284.155 50.209L294.688 65.1729L296.587 67.8691L296.506 64.5732C296.164 50.5434 293.096 38.7383 282.79 28.7363L282.293 28.2607C274.612 20.9345 266.9 18.5809 258.927 18.8818C252.023 19.1424 244.948 21.3967 237.612 23.9873L234.452 25.1133C231.666 26.0892 228.917 27.0729 226.156 27.9912L224.972 28.3809L219.02 30.2852L223.28 25.7256V25.7246ZM138.427 174.805C138.426 174.801 138.425 174.796 138.424 174.791C138.424 174.789 138.423 174.787 138.423 174.783C138.425 174.794 138.426 174.801 138.427 174.805Z" stroke="#D8859C" stroke-width="2"></path>
</svg>