<svg width="277" height="356" viewBox="0 0 277 356" fill="none" xmlns="http://www.w3.org/2000/svg">
<path d="M196.223 1.00195C196.156 1.05975 196.076 1.12503 195.979 1.19336C195.618 1.44864 195.158 1.69701 194.708 1.92871C194.497 2.0378 194.27 2.15239 194.091 2.24707C193.968 2.31249 193.819 2.39216 193.687 2.47852L193.562 2.56738L193.556 2.57129C183.506 10.3339 181.099 20.2835 182.82 30.21C184.474 39.7532 189.931 49.2765 195.954 56.9541L196.539 57.6904V57.6914C208.535 72.6464 214.902 78.5455 221.591 84.1572C228.234 89.7294 235.141 94.9764 248.314 108.698L248.489 108.882L248.731 108.959L249.125 109.084C251.508 112.698 254.503 115.935 258.019 118.683C258.011 119.011 258.081 119.349 258.193 119.676L258.425 120.352H258.739C265.664 127.652 269.972 133.184 272.534 139.437C274.967 145.375 275.86 152.047 275.796 161.641L275.771 163.6C275.232 192.737 252.179 216.103 228.605 231.23C228.94 230.93 229.28 230.63 229.624 230.327C230.937 229.17 232.308 227.974 233.552 226.646L234.078 226.069C244.665 214.066 250.211 202.915 251.966 192.398C253.723 181.872 251.666 172.081 247.216 162.835C239.465 146.729 224.377 132.149 209.375 118.025L202.972 111.998C192.913 102.483 190.382 100.653 188.014 98.6895C185.994 97.0138 184.074 95.2237 177.289 88.0391L174.068 84.6143C168.56 78.7411 162.609 72.3221 157.924 65.2812C153.389 58.4645 150.083 51.1281 149.504 43.2227L149.457 42.4561C148.361 20.8166 167.099 7.44676 186.445 2.59375L186.446 2.59473C187.166 2.41643 189.558 1.9168 191.881 1.52148C193.042 1.32401 194.165 1.15642 195.043 1.06738C195.485 1.02266 195.842 0.999747 196.102 1C196.148 1.00005 196.188 1.00071 196.223 1.00195Z" stroke="#D8859C" stroke-width="2"/>
<mask id="path-2-inside-1_3154_6672" fill="white">
<path d="M162.877 251.576C163.063 252.042 163.203 252.415 163.281 252.632C163.824 254.06 164.398 255.845 164.848 257.35C165.143 255.255 164.32 253.268 162.877 251.561V251.576Z"/>
</mask>
<path d="M162.877 251.576H160.877V251.962L161.02 252.319L162.877 251.576ZM163.281 252.632L161.397 253.305L161.404 253.324L161.411 253.343L163.281 252.632ZM164.848 257.35L162.932 257.923L166.829 257.629L164.848 257.35ZM162.877 251.561L164.404 250.27L160.877 246.098V251.561H162.877ZM162.877 251.576L161.02 252.319C161.199 252.766 161.329 253.115 161.397 253.305L163.281 252.632L165.164 251.959C165.076 251.714 164.928 251.318 164.734 250.834L162.877 251.576ZM163.281 252.632L161.411 253.343C161.93 254.706 162.488 256.439 162.932 257.923L164.848 257.35L166.764 256.777C166.308 255.251 165.718 253.414 165.15 251.921L163.281 252.632ZM164.848 257.35L166.829 257.629C167.227 254.798 166.086 252.259 164.404 250.27L162.877 251.561L161.35 252.852C162.554 254.277 163.059 255.712 162.868 257.072L164.848 257.35ZM162.877 251.561H160.877V251.576H162.877H164.877V251.561H162.877Z" fill="#D8859C" mask="url(#path-2-inside-1_3154_6672)"/>
<path d="M173.567 101.943H173.569C174.869 101.967 175.825 102.03 176.472 102.145C176.581 102.164 176.674 102.184 176.755 102.204C176.739 102.222 176.722 102.243 176.704 102.263C176.397 102.583 175.913 102.987 175.222 103.492L174.461 104.032L174.46 104.033C172.57 105.344 170.738 106.432 168.967 107.553C167.219 108.66 165.549 109.79 164.108 111.136C161.252 113.801 159.37 117.241 159.174 122.854L159.161 123.403C158.983 134.881 166.136 143.318 173.093 150.986V150.987C179.287 157.835 185.774 164.431 192.242 171.013C198.578 177.461 204.895 183.896 210.93 190.568L210.916 190.613L211.305 191.046C218.905 199.483 225.322 208.198 227.484 217.124C229.584 225.795 227.699 234.797 218.537 244.121L218.095 244.565H218.094C207.695 254.906 195.528 260.361 181.283 263.108L179.898 263.366C178.698 263.58 176.058 263.994 173.489 264.231C172.202 264.35 170.956 264.423 169.925 264.407C169.41 264.399 168.967 264.369 168.61 264.317C168.246 264.264 168.036 264.196 167.937 264.147C167.842 264.095 167.64 263.903 167.398 263.389C167.168 262.901 166.966 262.265 166.784 261.546C166.603 260.832 166.451 260.08 166.308 259.365C166.174 258.694 166.043 258.031 165.905 257.516C165.9 257.487 165.895 257.462 165.89 257.441C165.884 257.416 165.875 257.393 165.869 257.373L165.865 257.356C165.86 257.337 165.853 257.318 165.848 257.301C166.077 254.988 165.188 252.866 163.735 251.11C163.441 250.354 163.052 249.411 162.656 248.61C162.445 248.186 162.219 247.772 161.992 247.441C161.878 247.277 161.748 247.109 161.602 246.964C161.477 246.84 161.266 246.657 160.973 246.562L160.974 246.562L160.935 246.55H160.934C160.586 246.443 160.243 246.466 159.976 246.515C159.856 246.537 159.736 246.566 159.618 246.602C156.736 245.058 152.938 244.659 149.284 244.753C145.416 244.852 141.542 245.509 138.733 246.113L138.718 246.116L138.703 246.12L134.63 247.131H134.594L134.485 247.155C130.725 248.007 126.627 249.139 122.388 250.31C118.671 251.336 114.84 252.393 110.998 253.329L109.35 253.723C102.829 255.237 96.3683 256.314 90.479 256.219C84.7765 256.127 79.6846 254.937 75.5981 252.053L75.2056 251.768C72.2407 249.553 70.8036 246.89 70.3696 244.003C69.9302 241.079 70.5101 237.852 71.73 234.551C74.1722 227.941 79.0562 221.342 82.6147 216.868C82.942 216.468 83.2535 216.09 83.5581 215.729H83.5669L83.8667 215.37C85.4444 213.478 86.8811 211.945 88.1997 210.543C88.5527 210.168 88.8977 209.799 89.2358 209.437C88.9552 211.577 88.9929 213.721 89.3276 215.795C88.9019 217.611 88.7895 219.487 89.0649 221.465L89.1274 221.877L89.1284 221.882C89.4663 223.861 90.1094 225.605 91.0591 227.095C91.0718 227.123 91.0843 227.153 91.1001 227.181C91.1094 227.197 91.1214 227.212 91.1313 227.228L91.1304 227.229C94.1345 232 99.6936 234.162 105.475 235.004C110.922 235.797 116.768 235.45 121.382 234.855L122.289 234.733C129.323 233.744 138.034 230.898 146.731 228.562L148.369 228.122L147.191 226.901C146.967 226.669 146.738 226.442 146.512 226.22L145.846 225.572C140.542 220.403 134.929 216.531 129.185 212.972C123.765 209.614 118.321 206.586 112.792 202.972L111.684 202.241C98.4738 193.439 94.506 183.073 96.8384 173.839C99.1969 164.502 108.086 155.907 121.488 150.944L121.487 150.943C124.939 149.674 128.346 148.92 131.979 147.778L132.292 147.68L132.486 147.416C132.913 146.834 132.863 146.118 132.78 145.646C132.687 145.123 132.49 144.564 132.284 144.059C132.075 143.547 131.833 143.031 131.636 142.603C131.478 142.259 131.36 141.993 131.284 141.797L131.222 141.624V141.623L130.99 140.851C128.685 132.941 129.443 127.138 132.285 122.411C135.257 117.467 140.597 113.545 147.622 109.674L147.621 109.673C154.84 105.705 164.521 102.016 172.773 101.939L173.567 101.943ZM194.575 217.962C194.086 217.797 193.598 217.908 193.199 218.072L193.05 218.133L192.929 218.236C192.099 218.944 191.434 219.796 190.845 220.588C190.312 221.306 189.853 221.956 189.354 222.529L189.136 222.771V222.771C188.977 222.942 188.684 223.202 188.28 223.546C187.897 223.871 187.43 224.26 186.996 224.64C186.561 225.02 186.12 225.426 185.776 225.807C185.604 225.997 185.437 226.202 185.304 226.412C185.197 226.581 185.067 226.82 185.012 227.104L184.998 227.196C184.997 227.199 184.997 227.202 184.997 227.205C184.996 227.213 184.994 227.22 184.994 227.228H184.995C184.974 227.419 185.01 227.574 185.024 227.631C185.044 227.714 185.071 227.788 185.093 227.846C185.139 227.962 185.199 228.088 185.26 228.208C185.386 228.453 185.561 228.76 185.762 229.099C186.168 229.781 186.718 230.652 187.282 231.534C188.432 233.332 189.61 235.123 189.912 235.658V235.659C190.425 236.576 190.981 237.883 191.579 239.237C192.15 240.533 192.775 241.906 193.393 242.787V242.788C193.507 242.952 193.678 243.201 193.919 243.405C194.195 243.638 194.507 243.775 194.865 243.849L195.636 244.008L195.972 243.296C199.331 236.169 198.915 227.708 196.083 220.621L195.801 219.939C195.783 219.895 195.762 219.812 195.716 219.589C195.681 219.419 195.621 219.114 195.499 218.839C195.367 218.543 195.1 218.139 194.575 217.962ZM90.9683 226.679C90.9683 226.682 90.9692 226.686 90.9692 226.691C90.9694 226.702 90.9691 226.718 90.9702 226.737C90.97 226.735 90.9704 226.732 90.9702 226.729C90.969 226.71 90.9694 226.695 90.9692 226.686L90.9683 226.679ZM132.377 155.882C132.17 155.864 131.851 155.859 131.537 155.962L131.403 156.013L131.398 156.015C130.957 156.211 130.591 156.552 130.297 156.899C129.994 157.258 129.71 157.691 129.446 158.156C128.918 159.088 128.422 160.24 127.988 161.404C127.231 163.434 126.623 165.615 126.359 166.932L126.268 167.437C124.618 177.932 130.284 185.637 137.825 191.657C141.598 194.67 145.887 197.299 150.055 199.683C153.732 201.785 157.267 203.671 160.36 205.493L161.658 206.271C162.379 206.711 163.224 207.364 164.126 208.047C164.797 208.555 165.513 209.089 166.176 209.492V209.537L166.722 209.815C167.245 210.082 167.853 210.244 168.458 210.037C169.067 209.828 169.392 209.339 169.568 208.958C169.745 208.576 169.849 208.138 169.925 207.776C169.968 207.573 170.003 207.393 170.038 207.224L170.147 206.738C172.677 196.982 168.392 187.324 161.895 179.133C155.788 171.433 147.598 164.86 140.745 160.441L139.392 159.586C137.776 158.574 135.005 156.819 133.181 156.074H133.182C133.178 156.073 133.174 156.071 133.17 156.069C133.166 156.068 133.162 156.066 133.158 156.064H133.157C132.913 155.962 132.629 155.903 132.377 155.882Z" stroke="#D8859C" stroke-width="2"/>
<path d="M41.9082 195.393C32.2587 205.629 24.8534 217.309 22.3506 229.417C19.7023 242.23 22.5663 255.428 33.8506 267.726L34.3945 268.311C39.2814 273.504 45.0316 278.06 50.9834 282.426C56.9668 286.815 63.0926 290.97 68.8936 295.46C80.4584 304.412 90.3493 314.421 93.9072 329.108L94.0273 329.606L94.5029 329.799C95.2455 330.1 95.9224 329.716 96.292 329.443C96.7145 329.13 97.1332 328.671 97.5283 328.166C98.3283 327.144 99.1972 325.719 100.009 324.238C101.524 321.475 102.944 318.327 103.423 316.905L103.505 316.645L103.506 316.643C106.648 305.928 101.146 295.522 94.1143 285.908C90.585 281.083 86.5815 276.345 82.9814 271.823C79.5842 267.557 76.5381 263.473 74.4473 259.57L74.042 258.793L74.041 258.791L73.7402 258.18C72.2261 255.005 70.5632 250.113 69.6006 245.177C69.0881 242.548 68.78 239.935 68.791 237.583C68.8021 235.218 69.1363 233.192 69.8477 231.687L69.8467 231.686C70.0178 231.327 70.5739 230.523 71.4941 229.341C72.3896 228.191 73.5668 226.763 74.9043 225.2C77.4996 222.168 80.6791 218.654 83.5361 215.714L83.8301 215.411C85.584 213.611 87.1845 212.065 88.4238 211.011C88.6842 210.789 88.924 210.594 89.1416 210.425C88.9892 212.234 89.0608 214.031 89.3428 215.778C88.8881 217.727 88.7742 219.74 89.1436 221.864V221.865C89.4802 223.853 90.1203 225.576 91.0625 227.06C93.6912 235.861 99.853 244.027 106.119 251.923L108.811 255.303V255.304C114.013 261.836 118.953 268.233 121.918 274.846C124.773 281.213 125.77 287.721 123.393 294.694L123.152 295.371C122.093 298.229 119.979 301.915 117.214 306.033C114.458 310.137 111.091 314.617 107.562 319.051C101.327 326.887 94.6123 334.549 89.9346 339.693V339.688L88.1982 341.573C84.1264 345.997 79.5843 350.959 74.7793 354.115C74.6295 354.044 74.3742 353.847 74.0225 353.299C73.5371 352.543 73.0741 351.434 72.6299 350.151C72.1895 348.88 71.7933 347.516 71.417 346.264C71.0511 345.046 70.6888 343.881 70.3291 343.114H70.3301L70.3281 343.111L69.9541 342.342C66.0139 334.429 59.7025 327.829 52.5234 321.808C45.1352 315.611 36.6871 309.919 28.915 304.076C13.493 292.483 0.55555 280.174 1.01172 261.028L1.04395 260.112V260.111C1.63608 247.103 7.94509 234.998 16.3379 223.83C24.1476 213.438 33.6674 203.971 41.9082 195.393Z" stroke="#D8859C" stroke-width="2"/>
<path d="M70.6313 174.796C72.8424 176.756 74.7256 179.758 76.0181 183.078C77.2951 186.357 77.9575 189.846 77.8364 192.777L77.8022 193.355C77.3971 198.418 73.8541 203.435 69.3696 208.303C67.1455 210.717 64.741 213.043 62.4517 215.286C60.3557 217.34 58.3504 219.333 56.7173 221.224C56.6888 221.211 56.6649 221.199 56.646 221.188C56.5765 221.146 56.57 221.122 56.5688 221.12C56.5419 221.059 56.5061 220.845 56.6587 220.271C56.728 220.01 56.8213 219.724 56.9312 219.397C57.0379 219.079 57.1606 218.722 57.271 218.359C57.4631 217.727 57.6429 217 57.6655 216.246V215.922C57.4119 207.963 53.724 202.778 50.2017 196.568C50.223 196.519 50.2497 196.463 50.2827 196.397C50.4146 196.134 50.6116 195.8 50.8765 195.398C51.4051 194.596 52.1604 193.586 53.0825 192.436C54.9243 190.139 57.3872 187.34 59.9243 184.639C62.4622 181.937 65.0579 179.35 67.1626 177.468C68.2178 176.525 69.13 175.777 69.8384 175.284C70.169 175.053 70.4333 174.894 70.6313 174.796Z" stroke="#D8859C" stroke-width="2"/>
</svg>
